<svg width="18" height="18" viewBox="0 0 18 18" fill="none" xmlns="http://www.w3.org/2000/svg">
<path d="M9 0.666687C4.40001 0.666687 0.666672 4.40002 0.666672 9.00002C0.666672 13.6 4.40001 17.3334 9 17.3334H13.1667V15.6667H9C5.38334 15.6667 2.33334 12.6167 2.33334 9.00002C2.33334 5.38335 5.38334 2.33335 9 2.33335C12.6167 2.33335 15.6667 5.38335 15.6667 9.00002V10.1917C15.6667 10.85 15.075 11.5 14.4167 11.5C13.7583 11.5 13.1667 10.85 13.1667 10.1917V9.00002C13.1667 6.70002 11.3 4.83335 9 4.83335C6.70001 4.83335 4.83334 6.70002 4.83334 9.00002C4.83334 11.3 6.70001 13.1667 9 13.1667C10.15 13.1667 11.2 12.7 11.95 11.9417C12.4917 12.6834 13.425 13.1667 14.4167 13.1667C16.0583 13.1667 17.3333 11.8334 17.3333 10.1917V9.00002C17.3333 4.40002 13.6 0.666687 9 0.666687ZM9 11.5C7.61667 11.5 6.5 10.3834 6.5 9.00002C6.5 7.61669 7.61667 6.50002 9 6.50002C10.3833 6.50002 11.5 7.61669 11.5 9.00002C11.5 10.3834 10.3833 11.5 9 11.5Z" fill="white"/>
</svg>
